<?xml version="1.0" standalone="no"?>
<!DOCTYPE svg PUBLIC "-//W3C//DTD SVG 20010904//EN"
 "http://www.w3.org/TR/2001/REC-SVG-20010904/DTD/svg10.dtd">
<svg version="1.0" xmlns="http://www.w3.org/2000/svg"
 width="512.000000pt" height="512.000000pt" viewBox="0 0 512.000000 512.000000"
 preserveAspectRatio="xMidYMid meet">
<metadata>
Created by potrace 1.15, written by Peter Selinger 2001-2017
</metadata>
<g transform="translate(0.000000,512.000000) scale(0.100000,-0.100000)"
fill="#000000" stroke="none">
<path d="M203 4958 c-174 -172 -196 -198 -191 -231 3 -19 32 5 192 163 103
102 192 193 197 203 8 14 5 17 -17 17 -21 0 -60 -33 -181 -152z"/>
<path d="M303 4858 c-140 -139 -264 -265 -275 -281 -10 -15 -18 -37 -16 -50 3
-18 49 23 292 263 158 157 292 293 297 303 8 14 5 17 -17 17 -22 0 -75 -47
-281 -252z"/>
<path d="M402 4758 c-194 -194 -362 -365 -373 -381 -11 -15 -19 -37 -17 -50 4
-18 67 40 392 363 213 212 392 393 397 403 8 14 5 17 -18 17 -22 0 -89 -62
-381 -352z"/>
<path d="M502 4658 c-249 -249 -462 -465 -473 -481 -11 -15 -19 -37 -17 -50 4
-18 84 57 492 463 268 267 492 493 497 503 8 14 5 17 -18 17 -22 0 -104 -76
-481 -452z"/>
<path d="M602 4558 c-304 -304 -562 -565 -573 -581 -11 -15 -19 -37 -17 -50 4
-18 101 75 592 563 323 322 592 593 597 603 8 14 5 17 -18 17 -23 0 -118 -91
-581 -552z"/>
<path d="M702 4458 c-359 -359 -662 -665 -673 -681 -11 -15 -19 -37 -17 -50 4
-18 118 92 692 663 378 377 692 693 697 703 8 14 5 17 -18 17 -23 0 -133 -106
-681 -652z"/>
<path d="M802 4358 c-414 -414 -762 -765 -773 -781 -11 -15 -19 -37 -17 -50 4
-18 95 68 558 528 304 303 544 534 533 515 -11 -19 -33 -69 -48 -110 l-28 -75
-509 -510 c-420 -422 -508 -516 -508 -538 0 -15 3 -27 7 -27 4 0 228 221 499
491 l491 490 -10 -73 -9 -73 -489 -490 c-409 -411 -489 -495 -489 -519 0 -30
8 -28 48 8 l23 20 -24 -54 c-45 -103 -52 -147 -51 -305 1 -219 6 -294 17 -292
6 1 17 -19 25 -44 15 -46 14 -47 -12 -82 -16 -21 -26 -45 -24 -59 3 -22 4 -22
38 9 l35 32 21 -42 22 -42 -59 -63 c-39 -42 -59 -71 -59 -88 0 -33 18 -23 89
50 l54 55 23 -35 c13 -19 24 -38 24 -41 0 -3 -43 -50 -95 -104 -70 -72 -95
-105 -95 -124 0 -36 16 -25 130 89 l94 96 33 -32 33 -32 -145 -147 c-112 -113
-145 -153 -145 -173 0 -14 3 -26 7 -26 4 0 77 69 162 154 l156 155 35 -29 35
-29 -197 -199 c-157 -158 -198 -205 -198 -226 0 -14 3 -26 7 -26 4 0 103 95
220 212 l212 212 38 -20 c21 -10 40 -20 42 -22 3 -1 -113 -121 -257 -265 -212
-213 -262 -269 -262 -290 0 -15 3 -27 7 -27 4 0 134 126 288 280 l281 281 53
-12 53 -11 -341 -342 c-279 -280 -341 -347 -341 -369 0 -15 3 -27 7 -27 4 0
174 166 378 369 l370 368 60 13 c33 7 74 19 90 27 17 8 -180 -196 -438 -454
-385 -387 -467 -474 -467 -496 0 -15 3 -27 7 -27 4 0 627 619 1385 1377 l1376
1376 15 -49 15 -49 -1399 -1400 c-1176 -1177 -1399 -1405 -1399 -1428 0 -15 3
-27 7 -27 4 0 639 631 1409 1401 l1402 1402 22 -43 22 -43 -264 -264 c-234
-236 -271 -268 -334 -299 -152 -75 -299 -221 -476 -474 -73 -103 -168 -202
-935 -970 -713 -715 -853 -860 -853 -883 0 -15 3 -27 7 -27 4 0 185 177 401
393 310 309 386 380 357 334 -20 -32 -54 -95 -76 -140 -38 -78 -53 -95 -364
-407 -265 -266 -325 -331 -325 -353 0 -15 3 -27 7 -27 4 0 144 136 311 303
250 249 303 297 298 272 -2 -16 -8 -50 -11 -75 -7 -43 -20 -58 -306 -346 -245
-246 -299 -305 -299 -328 0 -22 3 -25 18 -17 9 5 143 136 297 290 154 155 283
281 286 281 3 0 9 -24 12 -52 l7 -53 -285 -285 c-157 -157 -285 -289 -285
-293 0 -4 12 -7 27 -7 21 0 78 51 295 267 147 147 269 265 270 262 2 -2 12
-21 22 -42 l20 -38 -217 -217 c-119 -120 -217 -221 -217 -225 0 -4 12 -7 26
-7 22 0 69 41 231 203 l204 202 29 -35 29 -35 -160 -161 c-87 -88 -159 -163
-159 -167 0 -4 12 -7 26 -7 21 0 60 33 178 150 l152 150 37 -27 37 -27 -115
-116 c-63 -64 -115 -120 -115 -123 0 -4 12 -7 26 -7 19 0 54 28 139 111 l114
111 46 -17 46 -18 -86 -87 c-47 -48 -85 -90 -85 -94 0 -3 11 -6 25 -6 19 0 51
24 116 87 l90 87 52 -3 c29 -1 54 -5 56 -7 2 -2 -28 -37 -67 -78 -40 -41 -72
-77 -72 -80 0 -3 11 -6 25 -6 18 0 50 23 109 80 l84 81 68 6 69 6 -77 -80
c-43 -45 -78 -83 -78 -87 0 -3 11 -6 25 -6 18 0 53 26 123 94 95 91 99 93 156
101 33 4 66 9 75 12 9 4 -28 -39 -81 -94 -54 -55 -98 -103 -98 -107 0 -3 12
-6 26 -6 19 0 55 28 142 114 117 113 117 114 189 130 40 9 75 16 79 16 5 0
-47 -56 -114 -123 -67 -68 -122 -127 -122 -130 0 -4 12 -7 26 -7 20 0 60 34
172 144 140 137 149 143 197 150 28 4 61 10 75 13 18 4 -16 -36 -122 -144 -82
-82 -148 -153 -148 -156 0 -4 12 -7 26 -7 21 0 63 36 193 164 l166 164 70 7
70 7 -162 -164 c-90 -91 -163 -167 -163 -171 0 -4 12 -7 26 -7 21 0 64 37 198
170 l172 170 64 0 64 0 -162 -163 c-89 -90 -162 -166 -162 -170 0 -4 12 -7 26
-7 21 0 64 36 198 169 l171 169 58 -5 59 -6 -156 -157 c-86 -86 -156 -159
-156 -163 0 -4 12 -7 26 -7 21 0 62 35 186 158 120 118 165 156 181 154 12 -1
37 -5 56 -8 l34 -5 -142 -143 c-77 -78 -141 -146 -141 -149 0 -4 12 -7 26 -7
20 0 59 33 173 144 l146 144 53 -10 53 -11 -125 -127 c-69 -70 -126 -130 -126
-133 0 -4 12 -7 26 -7 20 0 56 30 154 126 l129 126 50 -7 c28 -4 51 -10 51
-14 0 -3 -43 -49 -96 -101 -114 -114 -125 -130 -89 -130 20 0 54 27 140 111
109 106 115 111 147 104 75 -15 76 -10 -21 -110 -50 -51 -91 -95 -91 -99 0 -3
11 -6 26 -6 18 0 51 25 123 95 95 92 98 94 137 89 71 -10 71 -10 -10 -93 -42
-43 -76 -81 -76 -85 0 -3 11 -6 25 -6 18 0 50 23 109 80 l83 80 63 0 63 0 -71
-74 c-40 -41 -72 -77 -72 -80 0 -3 11 -6 25 -6 18 0 49 23 108 79 l82 78 68 6
68 5 -75 -78 c-42 -43 -76 -80 -76 -84 0 -3 11 -6 25 -6 19 0 57 31 145 115
66 63 124 115 130 115 17 0 100 81 132 130 17 25 210 225 429 446 328 328 399
405 399 427 0 15 -3 27 -7 27 -4 0 -170 -163 -369 -361 l-362 -361 14 53 c8
29 14 65 14 78 0 20 78 103 355 381 291 292 355 361 355 383 0 15 -3 27 -7 27
-4 0 -161 -153 -349 -341 -368 -368 -353 -357 -354 -259 0 32 24 59 355 390
293 294 355 361 355 383 0 23 -3 26 -17 18 -10 -5 -173 -165 -363 -355 l-345
-346 -16 47 -17 48 379 381 c311 312 379 385 379 407 0 15 -3 27 -7 27 -4 0
-179 -172 -389 -381 l-382 -382 -22 43 -22 43 411 411 c338 339 411 417 411
439 0 15 -3 27 -7 27 -4 0 -195 -188 -425 -417 -229 -229 -419 -415 -421 -413
-2 3 -14 20 -27 38 l-23 34 452 452 c372 373 451 457 451 479 0 15 -3 27 -7
27 -4 0 -215 -207 -468 -460 l-460 -460 -29 36 -29 36 259 257 c143 141 281
269 308 285 71 43 164 134 221 216 28 40 85 110 127 156 55 59 78 92 78 110 0
27 -8 26 -49 -10 -23 -20 -24 -20 -16 -1 4 11 16 52 27 90 10 39 23 78 29 88
15 27 8 456 -7 450 -6 -2 -19 16 -28 41 l-17 45 31 40 c20 25 30 47 28 62 -3
23 -4 23 -45 -14 l-42 -38 -25 37 -25 37 69 74 c49 51 70 81 70 98 0 35 -17
24 -104 -63 l-69 -70 -37 26 -38 27 124 127 c94 96 124 132 124 152 0 14 -3
26 -7 26 -3 0 -70 -63 -147 -139 l-141 -140 -48 16 -48 16 195 197 c156 156
196 203 196 224 0 14 -3 26 -7 26 -4 0 -106 -99 -227 -219 l-221 -219 -55 -7
c-30 -3 -64 -9 -75 -12 -11 -3 116 132 283 299 247 249 302 309 302 332 0 22
-3 25 -17 17 -10 -5 -171 -163 -358 -351 -223 -224 -362 -356 -405 -384 -82
-53 -183 -155 -243 -243 -29 -43 -173 -195 -385 -407 l-340 -339 -22 43 -22
43 896 896 c750 750 896 901 896 924 0 15 -3 27 -7 27 -4 0 -413 -406 -909
-901 l-902 -902 -25 39 -25 39 934 935 c788 789 934 940 934 963 0 23 -3 26
-17 18 -10 -5 -436 -428 -947 -940 l-929 -929 -28 36 -27 37 974 975 c816 817
974 980 974 1003 0 15 -3 27 -7 27 -4 0 -263 -255 -576 -567 -313 -313 -559
-552 -548 -533 11 19 34 71 51 115 l32 80 524 525 c434 435 524 530 524 553 0
15 -3 27 -7 27 -4 0 -234 -226 -511 -502 -366 -365 -503 -495 -498 -475 4 15
9 48 12 75 6 47 9 50 505 547 413 414 499 506 499 528 0 15 -3 27 -7 27 -4 0
-227 -219 -495 -487 l-488 -488 0 65 0 65 431 430 c236 237 435 438 440 448 8
14 5 17 -18 17 -22 0 -98 -71 -444 -416 l-416 -416 -7 58 -7 58 351 351 c192
193 350 354 350 358 0 4 -12 7 -27 7 -22 0 -88 -61 -358 -330 l-330 -330 -17
48 -17 47 274 275 c151 152 275 279 275 283 0 4 -12 7 -27 7 -21 0 -76 -49
-283 -255 -141 -140 -258 -255 -261 -255 -3 0 -14 18 -24 40 l-18 41 206 208
c114 114 207 210 207 214 0 4 -12 7 -26 7 -21 0 -68 -40 -223 -194 l-196 -193
-29 34 -29 34 152 153 c83 84 151 156 151 159 0 4 -12 7 -26 7 -20 0 -59 -32
-169 -141 l-143 -141 -36 28 -35 29 104 106 c58 58 105 109 105 113 0 3 -12 6
-26 6 -19 0 -52 -26 -128 -100 l-104 -101 -38 18 c-22 9 -41 19 -43 20 -2 2
28 36 67 77 40 41 72 77 72 80 0 3 -11 6 -25 6 -18 0 -49 -22 -104 -75 l-78
-75 -61 2 -62 2 65 67 c36 37 65 70 65 73 0 3 -11 6 -25 6 -18 0 -50 -23 -108
-79 -54 -51 -96 -83 -122 -91 -47 -15 -128 -54 -170 -83 -16 -11 27 38 98 110
70 71 127 133 127 136 0 4 -12 7 -27 7 -22 0 -114 -87 -529 -501 l-502 -501
-12 52 -13 52 442 442 c242 243 441 445 441 449 0 4 -12 7 -27 7 -22 0 -102
-75 -449 -421 l-422 -422 -16 38 c-9 20 -16 43 -16 49 0 6 160 171 356 366
195 195 360 363 365 373 8 14 5 17 -18 17 -22 0 -89 -62 -379 -351 l-352 -352
-22 43 -22 43 301 301 c166 166 301 305 301 309 0 4 -12 7 -27 7 -21 0 -81
-54 -315 -287 -158 -158 -289 -285 -291 -282 -2 2 -14 19 -27 37 l-23 34 242
242 c132 133 241 245 241 249 0 4 -12 7 -27 7 -21 0 -72 -46 -258 -230 l-231
-230 -32 33 -32 33 181 179 c99 99 185 188 190 198 8 14 5 17 -17 17 -21 0
-64 -37 -210 -182 l-183 -181 -36 28 -37 27 146 147 c80 81 146 151 146 154 0
4 -12 7 -26 7 -20 0 -59 -32 -170 -141 l-143 -141 -45 18 -45 19 114 116 c63
64 115 119 115 122 0 4 -12 7 -26 7 -19 0 -55 -28 -142 -113 l-117 -113 -52 4
c-29 2 -53 7 -53 11 0 3 39 45 86 91 104 104 115 120 79 120 -20 0 -54 -27
-138 -109 -98 -94 -118 -110 -162 -120 -27 -7 -70 -21 -95 -32 -42 -19 -37
-12 88 114 72 73 132 137 132 140 0 4 -12 7 -27 7 -23 0 -152 -125 -781 -752z
m2154 265 c-34 -47 -116 -203 -116 -220 0 -4 -105 -113 -234 -242 l-233 -233
-6 59 -6 58 312 313 c171 171 313 312 314 312 2 0 -12 -21 -31 -47z m-166
-370 c-5 -16 -14 -53 -20 -83 -10 -55 -14 -59 -208 -253 l-198 -198 4 68 4 68
211 213 c117 116 213 212 214 212 1 0 -2 -12 -7 -27z m-2068 -575 c-192 -193
-283 -278 -299 -278 -11 0 -50 -9 -84 -20 l-63 -19 354 355 355 354 7 -57 7
-58 -277 -277z m1793 -7 c-208 -208 -233 -231 -216 -191 11 25 25 68 32 95 11
46 26 65 213 253 l201 202 3 -62 3 -62 -236 -235z m-1688 -89 l-203 -203 -52
13 -53 12 243 243 243 243 12 -53 12 -52 -202 -203z m1933 188 l6 -49 -822
-822 c-698 -698 -819 -815 -799 -773 13 28 30 73 36 100 12 47 45 82 788 826
426 427 777 775 780 772 2 -2 7 -26 11 -54z m-1699 -94 l16 -44 -157 -157
-157 -157 -43 22 -43 22 179 179 c98 98 181 179 184 179 3 0 12 -20 21 -44z
m60 -137 l21 -42 -134 -133 -133 -133 -35 29 -35 29 145 146 c80 80 146 145
147 145 2 0 12 -19 24 -41z m74 -126 l25 -38 -122 -122 -122 -123 -33 32 -33
32 127 128 c70 70 129 128 130 128 1 0 14 -17 28 -37z m1755 -103 c0 -3 -82
-87 -182 -186 l-183 -182 -70 -6 -70 -7 225 226 225 225 27 -32 c15 -18 28
-35 28 -38z m-1665 -10 l29 -30 -129 -130 -129 -129 -23 34 c-13 19 -23 37
-23 42 0 9 232 243 240 243 4 0 19 -14 35 -30z m1750 -70 l19 -21 -140 -139
-139 -139 -58 6 -59 6 163 163 c172 172 171 172 214 124z m-1649 -22 c16 -12
31 -23 34 -25 2 -2 -63 -71 -145 -153 l-150 -150 -22 43 -22 42 132 133 c72
72 135 132 138 132 3 0 19 -10 35 -22z m1759 -45 c19 -9 35 -19 35 -22 0 -4
-58 -64 -128 -134 l-128 -128 -47 18 -47 17 132 133 c73 73 136 133 140 133 4
0 23 -8 43 -17z m239 -224 l-242 -242 -30 34 -31 34 176 176 c164 165 178 177
227 188 28 6 69 20 91 31 22 10 42 19 45 19 3 1 -104 -108 -236 -240z m-1872
190 l41 -21 -189 -189 -189 -189 -14 51 -14 51 159 159 c87 87 160 159 162
159 1 0 21 -9 44 -21z m1832 -20 c3 -3 -64 -74 -148 -158 l-154 -154 -37 28
-36 28 136 137 136 136 49 -6 c28 -4 52 -9 54 -11z m-1764 -374 l-365 -365 -3
62 -3 62 286 286 286 286 72 16 c40 8 76 16 82 17 5 0 -154 -163 -355 -364z
m117 336 c8 -4 -78 -97 -237 -256 -161 -161 -251 -244 -254 -234 -2 7 -7 32
-10 54 l-6 40 208 208 207 208 40 -7 c22 -3 46 -9 52 -13z m2267 -268 c-13
-38 -24 -77 -24 -88 0 -12 -96 -115 -247 -267 l-247 -247 -24 40 -25 41 294
294 c162 162 294 294 295 294 0 0 -10 -30 -22 -67z m-52 -270 l-3 -68 -191
-192 -192 -192 -27 37 -28 37 222 223 c122 122 222 222 222 222 0 0 -1 -30 -3
-67z m7 -228 c1 -26 -19 -51 -152 -183 l-154 -153 -28 36 -28 37 174 174 c168
168 174 173 180 147 4 -16 7 -42 8 -58z m36 -131 l18 -46 -134 -134 c-128
-128 -134 -133 -152 -116 -49 44 -49 45 104 198 79 79 144 144 145 144 1 0 9
-21 19 -46z m74 -138 l22 -30 -128 -128 -127 -128 -28 27 c-15 15 -28 31 -28
37 0 16 253 267 260 258 4 -4 17 -20 29 -36z m121 -125 c0 -3 -60 -66 -134
-140 l-133 -133 -28 37 -28 36 128 129 128 129 34 -26 c18 -14 33 -28 33 -32z
m-7 -213 l-157 -158 -33 32 -33 32 140 141 141 141 50 -15 50 -15 -158 -158z
m155 -45 l-208 -208 -32 33 -33 32 170 170 c184 185 160 169 285 178 20 2 -18
-41 -182 -205z"/>
<path d="M4596 550 c-284 -283 -522 -523 -527 -533 -8 -14 -5 -17 18 -17 23 0
108 81 511 483 266 265 492 494 503 510 11 15 19 37 17 50 -4 18 -89 -62 -522
-493z"/>
<path d="M4696 450 c-229 -228 -422 -423 -427 -432 -8 -15 -5 -18 18 -18 22 0
93 66 411 383 211 210 392 394 403 410 11 15 19 37 17 50 -4 18 -72 -45 -422
-393z"/>
<path d="M4796 350 c-174 -173 -322 -323 -327 -332 -8 -15 -5 -18 17 -18 23 0
80 52 312 282 156 156 293 295 303 311 11 15 19 37 17 50 -4 18 -54 -28 -322
-293z"/>
<path d="M4896 250 c-119 -118 -222 -223 -227 -232 -8 -15 -5 -18 17 -18 21 0
65 37 211 183 205 202 226 227 221 260 -3 19 -37 -11 -222 -193z"/>
<path d="M4996 150 c-136 -133 -149 -150 -111 -150 18 0 49 23 111 82 102 98
127 130 122 161 -3 19 -19 7 -122 -93z"/>
</g>
</svg>
